<svg width="37" height="39" viewBox="0 0 37 39" fill="none" xmlns="http://www.w3.org/2000/svg">
<path d="M31.1579 33.1053H5.8421L0 38.9474V5.8421C0 2.62895 2.62895 0 5.8421 0H31.1579C34.3711 0 37 2.62895 37 5.8421V27.2632C37 30.4763 34.3711 33.1053 31.1579 33.1053Z" fill="white"/>
<path d="M19.875 25H16.4766V12.3203H19.875V25ZM16.2773 9.03906C16.2773 8.53125 16.4453 8.11328 16.7812 7.78516C17.125 7.45703 17.5898 7.29297 18.1758 7.29297C18.7539 7.29297 19.2148 7.45703 19.5586 7.78516C19.9023 8.11328 20.0742 8.53125 20.0742 9.03906C20.0742 9.55469 19.8984 9.97656 19.5469 10.3047C19.2031 10.6328 18.7461 10.7969 18.1758 10.7969C17.6055 10.7969 17.1445 10.6328 16.793 10.3047C16.4492 9.97656 16.2773 9.55469 16.2773 9.03906Z" fill="black"/>
</svg>
