<svg width="32" height="41" viewBox="0 0 32 41" fill="none" xmlns="http://www.w3.org/2000/svg">
<path d="M28 13.6667H26V9.7619C26 4.37333 21.52 0 16 0C10.48 0 6 4.37333 6 9.7619V13.6667H4C1.8 13.6667 0 15.4238 0 17.5714V37.0952C0 39.2429 1.8 41 4 41H28C30.2 41 32 39.2429 32 37.0952V17.5714C32 15.4238 30.2 13.6667 28 13.6667ZM16 31.2381C13.8 31.2381 12 29.481 12 27.3333C12 25.1857 13.8 23.4286 16 23.4286C18.2 23.4286 20 25.1857 20 27.3333C20 29.481 18.2 31.2381 16 31.2381ZM22.2 13.6667H9.8V9.7619C9.8 6.42333 12.58 3.70952 16 3.70952C19.42 3.70952 22.2 6.42333 22.2 9.7619V13.6667Z" fill="white"/>
</svg>
