<?xml version="1.0" encoding="iso-8859-1"?>
<!-- Generator: Adobe Illustrator 16.0.0, SVG Export Plug-In . SVG Version: 6.00 Build 0)  -->
<!DOCTYPE svg PUBLIC "-//W3C//DTD SVG 1.1//EN" "http://www.w3.org/Graphics/SVG/1.1/DTD/svg11.dtd">
<svg version="1.1" id="Capa_1" xmlns="http://www.w3.org/2000/svg" xmlns:xlink="http://www.w3.org/1999/xlink" x="0px" y="0px"
	 width="35.101px" height="35.101px" viewBox="0 0 35.101 35.101" style="enable-background:new 0 0 35.101 35.101;"
	 xml:space="preserve">
<g>
	<path d="M27.962,10.875c-0.076-0.292-1.238-1.123-1.979-0.97c-0.664,0.138-2.31,0.77-2.31,0.77s0.198-1.186-0.247-1.409
		c-0.445-0.223-2.945-2.106-3.162-2.277c-0.216-0.17-0.174-0.487-0.243-0.679c-0.068-0.193,0.638-1.231,0.998-2.018
		c0.36-0.788,0.606-2.145-0.041-2.831c-0.15-0.16-0.12-0.663-0.562-0.91c-0.754-0.42-2.101-0.584-2.47-0.546
		c-0.586,0.061-0.69,0.77-0.69,0.77S16.38,1.752,16.13,2.029c-0.25,0.278,0.061,0.646,0.061,0.646s-0.716,0.675-0.731,0.91
		c-0.016,0.234,0.368,0.192,0.368,0.192s0.103,0.357-0.024,0.919c-0.092,0.407-0.35,0.821-0.303,0.951
		c0.101,0.283,0.688,0.323,0.688,0.323s0.243,0.323,0.02,0.363c-0.223,0.041-2.932,0.203-3.487,0.565
		c-0.555,0.362-2.061,1.936-2.254,2.136c-0.193,0.2-0.022,0.758-0.239,0.936c-0.217,0.177-0.956,0.105-1.154,0.287
		c-0.198,0.182-0.529,0.599-0.715,0.826c-0.186,0.227-0.967,0.043-1.167,0.597c-0.2,0.554,0.14,1.509,0.452,1.571
		s1.063,1.515,1.424,1.686c0.361,0.171,0.852,0.315,0.925,0.548c-0.113,1.852,0.473,4.54,3.197,4.018
		c0.054,0.428,0.087,1.613,0.594,1.938c0.507,0.323,1.309,1.16,1.309,1.16l-1.027,0.335v11.526h4.216c0,0-0.03,0.575,0.243,0.638
		h2.001c0.667,0,1.578-0.638,1.578-0.638h1.304V23.179c0,0,0.184-0.424,0.644-0.446c0.46-0.021,0.373,0.212,0.438,0.512
		c0.065,0.301,0.699,1.108,0.917,0.953s1.726-1.481,1.692-1.829c-0.032-0.346-0.971-1.203-0.971-1.203s-0.266-0.327-0.469-0.58
		c-0.203-0.252-0.552-0.217-0.749-0.45c-0.197-0.234-0.069-0.48-0.327-0.715c-0.259-0.235-1.542-1.371-1.542-1.371
		s1.218-0.672,1.171-1.708c-0.046-1.034-0.176-3.757-0.176-3.757s2.789-0.468,3.014-0.525
		C27.275,12.001,28.038,11.167,27.962,10.875z M10.283,15.575c0,0,0.586,0.931,1.031,0.91c0.445-0.021,0.931,0.263,0.931,0.263
		s0.121,1.173,0.788,2.568C11.335,19.763,10.082,17.55,10.283,15.575z M14.907,12.488c-0.685,0.193-0.903,1.188-0.903,1.188
		s-0.646,0.182-1.193,0.303c-0.546,0.122-0.667-0.505-1.274-0.485c-0.606,0.021-1.052-0.282-1.052-0.282s0.02-0.931,0-1.335
		c-0.021-0.404,0.464-0.85,1.162-0.971c0.698-0.122,2.458,0.708,2.903,0.667c0.445-0.039,0.384-0.769,1.314-0.869
		c0.93-0.102,1.517,1.941,1.517,1.941l-1.274,0.282C16.108,12.926,15.784,12.238,14.907,12.488z M17.549,15.677
		c0,0-0.957-0.202-1.138-0.789l1.138-0.263V15.677z"/>
</g>
<g>
</g>
<g>
</g>
<g>
</g>
<g>
</g>
<g>
</g>
<g>
</g>
<g>
</g>
<g>
</g>
<g>
</g>
<g>
</g>
<g>
</g>
<g>
</g>
<g>
</g>
<g>
</g>
<g>
</g>
</svg>
