<svg width="70" height="86" viewBox="0 0 70 86" fill="none" xmlns="http://www.w3.org/2000/svg">
<path d="M35 86C39.8125 86 43.75 82.0308 43.75 77.1795H26.25C26.25 79.5188 27.1719 81.7624 28.8128 83.4165C30.4538 85.0707 32.6794 86 35 86ZM61.25 59.5385V37.4872C61.25 23.9477 54.075 12.6133 41.5625 9.61436V6.61538C41.5625 2.95487 38.6312 0 35 0C31.3687 0 28.4375 2.95487 28.4375 6.61538V9.61436C15.8813 12.6133 8.75 23.9036 8.75 37.4872V59.5385L0 68.359V72.7692H70V68.359L61.25 59.5385Z" fill="white"/>
</svg>
