<svg width="33" height="34" viewBox="0 0 33 34" fill="none" xmlns="http://www.w3.org/2000/svg">
<path d="M0.0456485 11.8675C0.783886 9.60184 1.99467 7.51868 3.59794 5.75578C3.73069 5.61022 3.90353 5.50718 4.09471 5.45963C4.2859 5.41208 4.48687 5.42216 4.67234 5.48858L8.49745 6.84987C8.76916 6.94619 9.05851 6.98254 9.3456 6.95642C9.6327 6.9303 9.91073 6.84233 10.1606 6.69856C10.4105 6.55478 10.6262 6.35861 10.7931 6.12353C10.96 5.88844 11.0739 5.62002 11.1272 5.33671L11.8585 1.35409C11.8941 1.16052 11.9864 0.981859 12.1236 0.840688C12.2607 0.699517 12.4367 0.60217 12.6291 0.560947C14.9657 0.0652964 17.3803 0.0652964 19.7168 0.560947C20.1106 0.645324 20.4143 0.95752 20.4875 1.35409L21.2187 5.33671C21.2711 5.62049 21.3846 5.8895 21.5512 6.1251C21.7178 6.3607 21.9337 6.55727 22.1838 6.70119C22.434 6.84512 22.7124 6.93296 22.9998 6.95863C23.2873 6.9843 23.5768 6.94719 23.8485 6.84987L27.6736 5.48858C27.8591 5.42216 28.0601 5.41208 28.2512 5.45963C28.4424 5.50718 28.6153 5.61022 28.748 5.75578C30.3484 7.51927 31.5606 9.60057 32.2975 11.8675C32.3584 12.0548 32.362 12.2561 32.3079 12.4454C32.2537 12.6348 32.1444 12.8038 31.9937 12.9307L28.8943 15.5492C28.6736 15.7348 28.4962 15.9664 28.3745 16.2278C28.2528 16.4892 28.1897 16.774 28.1897 17.0623C28.1897 17.3507 28.2528 17.6355 28.3745 17.8969C28.4962 18.1583 28.6736 18.3899 28.8943 18.5755L31.9937 21.194C32.3031 21.4556 32.4212 21.8747 32.2975 22.2572C31.5602 24.5226 30.3503 26.6058 28.748 28.3689C28.6153 28.5145 28.4424 28.6175 28.2512 28.6651C28.0601 28.7126 27.8591 28.7025 27.6736 28.6361L23.8485 27.2748C23.5768 27.1785 23.2874 27.1421 23.0003 27.1683C22.7133 27.1944 22.4352 27.2824 22.1854 27.4261C21.9355 27.5699 21.7197 27.7661 21.5528 28.0012C21.386 28.2362 21.272 28.5047 21.2187 28.788L20.4875 32.7706C20.452 32.9647 20.3594 33.1438 20.2217 33.2851C20.0839 33.4263 19.9072 33.5234 19.714 33.5637C17.3784 34.0593 14.9648 34.0593 12.6291 33.5637C12.4361 33.523 12.2596 33.4259 12.1219 33.2847C11.9842 33.1435 11.8915 32.9645 11.8557 32.7706L11.1272 28.788C11.0748 28.5042 10.9614 28.2352 10.7947 27.9996C10.6281 27.764 10.4122 27.5674 10.1621 27.4235C9.91199 27.2796 9.63357 27.1917 9.34614 27.1661C9.0587 27.1404 8.76912 27.1775 8.49745 27.2748L4.67234 28.6361C4.48687 28.7025 4.2859 28.7126 4.09471 28.6651C3.90353 28.6175 3.73069 28.5145 3.59794 28.3689C1.99568 26.6058 0.785865 24.5226 0.0484608 22.2572C-0.0124082 22.0699 -0.0160181 21.8686 0.0380925 21.6792C0.092203 21.4899 0.201574 21.3209 0.352219 21.194L3.45168 18.5755C3.67191 18.3896 3.84891 18.1579 3.97033 17.8966C4.09175 17.6352 4.15465 17.3505 4.15465 17.0623C4.15465 16.7742 4.09175 16.4895 3.97033 16.2281C3.84891 15.9667 3.67191 15.735 3.45168 15.5492L0.352219 12.9307C0.201574 12.8038 0.092203 12.6348 0.0380925 12.4454C-0.0160181 12.2561 -0.0124082 12.0548 0.0484608 11.8675H0.0456485ZM11.2481 17.0623C11.2481 18.3677 11.7667 19.6197 12.6898 20.5427C13.6128 21.4658 14.8648 21.9844 16.1702 21.9844C17.4756 21.9844 18.7275 21.4658 19.6506 20.5427C20.5736 19.6197 21.0922 18.3677 21.0922 17.0623C21.0922 15.7569 20.5736 14.505 19.6506 13.582C18.7275 12.6589 17.4756 12.1403 16.1702 12.1403C14.8648 12.1403 13.6128 12.6589 12.6898 13.582C11.7667 14.505 11.2481 15.7569 11.2481 17.0623Z" fill="white"/>
</svg>
