<svg width="54" height="54" viewBox="0 0 54 54" fill="none" xmlns="http://www.w3.org/2000/svg">
<circle cx="27" cy="27" r="27" fill="#004953"/>
<path d="M24.2188 20.5938C24.7409 20.5938 25.2417 20.8012 25.6109 21.1704C25.9801 21.5396 26.1875 22.0404 26.1875 22.5625V30.4375C26.1875 30.9596 25.9801 31.4604 25.6109 31.8296C25.2417 32.1988 24.7409 32.4062 24.2188 32.4062C23.6966 32.4062 23.1958 32.1988 22.8266 31.8296C22.4574 31.4604 22.25 30.9596 22.25 30.4375V22.5625C22.25 22.0404 22.4574 21.5396 22.8266 21.1704C23.1958 20.8012 23.6966 20.5938 24.2188 20.5938V20.5938ZM30.7812 20.5938C31.3034 20.5938 31.8042 20.8012 32.1734 21.1704C32.5426 21.5396 32.75 22.0404 32.75 22.5625V30.4375C32.75 30.9596 32.5426 31.4604 32.1734 31.8296C31.8042 32.1988 31.3034 32.4062 30.7812 32.4062C30.2591 32.4062 29.7583 32.1988 29.3891 31.8296C29.0199 31.4604 28.8125 30.9596 28.8125 30.4375V22.5625C28.8125 22.0404 29.0199 21.5396 29.3891 21.1704C29.7583 20.8012 30.2591 20.5938 30.7812 20.5938Z" fill="white"/>
</svg>
