<svg width="38" height="38" viewBox="0 0 38 38" fill="none" xmlns="http://www.w3.org/2000/svg">
<path d="M17.4167 1.58333C17.4167 1.27018 17.5095 0.964059 17.6835 0.703681C17.8575 0.443303 18.1048 0.240364 18.3941 0.120525C18.6834 0.000686028 19.0018 -0.0306692 19.3089 0.030424C19.616 0.0915173 19.8982 0.242315 20.1196 0.463748C20.341 0.685181 20.4918 0.967304 20.5529 1.27444C20.614 1.58158 20.5826 1.89993 20.4628 2.18925C20.343 2.47857 20.14 2.72585 19.8797 2.89983C19.6193 3.07381 19.3132 3.16667 19 3.16667C18.5801 3.16667 18.1773 2.99985 17.8804 2.70292C17.5835 2.40599 17.4167 2.00326 17.4167 1.58333ZM4.75 11.0833C5.06315 11.0833 5.36928 10.9905 5.62965 10.8165C5.89003 10.6425 6.09297 10.3952 6.21281 10.1059C6.33265 9.8166 6.364 9.49824 6.30291 9.19111C6.24182 8.88397 6.09102 8.60185 5.86959 8.38041C5.64815 8.15898 5.36603 8.00818 5.05889 7.94709C4.75176 7.886 4.4334 7.91735 4.14409 8.03719C3.85477 8.15703 3.60749 8.35997 3.43351 8.62035C3.25953 8.88073 3.16667 9.18685 3.16667 9.5C3.16667 9.91993 3.33348 10.3227 3.63041 10.6196C3.92735 10.9165 4.33007 11.0833 4.75 11.0833ZM11.0833 4.75C11.3965 4.75 11.7026 4.65714 11.963 4.48316C12.2234 4.30918 12.4263 4.0619 12.5461 3.77258C12.666 3.48327 12.6973 3.16491 12.6362 2.85777C12.5752 2.55064 12.4244 2.26851 12.2029 2.04708C11.9815 1.82565 11.6994 1.67485 11.3922 1.61376C11.0851 1.55266 10.7667 1.58402 10.4774 1.70386C10.1881 1.8237 9.94082 2.02664 9.76684 2.28701C9.59286 2.54739 9.5 2.85351 9.5 3.16667C9.5 3.58659 9.66682 3.98932 9.96375 4.28625C10.2607 4.58319 10.6634 4.75 11.0833 4.75ZM26.9167 4.75C27.2298 4.75 27.5359 4.65714 27.7963 4.48316C28.0567 4.30918 28.2596 4.0619 28.3795 3.77258C28.4993 3.48327 28.5307 3.16491 28.4696 2.85777C28.4085 2.55064 28.2577 2.26851 28.0363 2.04708C27.8148 1.82565 27.5327 1.67485 27.2256 1.61376C26.9184 1.55266 26.6001 1.58402 26.3108 1.70386C26.0214 1.8237 25.7742 2.02664 25.6002 2.28701C25.4262 2.54739 25.3333 2.85351 25.3333 3.16667C25.3333 3.58659 25.5001 3.98932 25.7971 4.28625C26.094 4.58319 26.4967 4.75 26.9167 4.75ZM33.25 11.0833C33.5632 11.0833 33.8693 10.9905 34.1297 10.8165C34.39 10.6425 34.593 10.3952 34.7128 10.1059C34.8326 9.8166 34.864 9.49824 34.8029 9.19111C34.7418 8.88397 34.591 8.60185 34.3696 8.38041C34.1482 8.15898 33.866 8.00818 33.5589 7.94709C33.2518 7.886 32.9334 7.91735 32.6441 8.03719C32.3548 8.15703 32.1075 8.35997 31.9335 8.62035C31.7595 8.88073 31.6667 9.18685 31.6667 9.5C31.6667 9.91993 31.8335 10.3227 32.1304 10.6196C32.4273 10.9165 32.8301 11.0833 33.25 11.0833ZM16.9258 31.4814C16.4768 30.3611 16.1632 29.1912 15.9917 27.9965C13.8142 27.2809 11.9715 25.7975 10.8076 23.823C9.64361 21.8485 9.23794 19.5179 9.66625 17.2662L15.2 22.8V24.0667C15.2029 24.6768 15.4281 25.2651 15.8333 25.7213V19H13.9333V16.4667H16.4667C16.8024 16.4658 17.124 16.3321 17.3614 16.0947C17.5988 15.8574 17.7325 15.5357 17.7333 15.2V12.6667H20.2667C20.9093 12.6639 21.5268 12.4171 21.9942 11.9761C22.4616 11.5351 22.744 10.933 22.7842 10.2917C24.2538 10.9424 25.5353 11.9537 26.5098 13.2319L28.5 12.4023L30.21 13.1147C29.2094 11.2042 27.7373 9.58096 25.9334 8.39887C24.1295 7.21678 22.0536 6.51504 19.9024 6.3602C17.7513 6.20537 15.5963 6.60256 13.6417 7.51412C11.6871 8.42568 9.99772 9.82139 8.73378 11.5689C7.46984 13.3164 6.67322 15.3578 6.41945 17.4996C6.16567 19.6413 6.46317 21.8123 7.28371 23.8068C8.10426 25.8014 9.42066 27.5532 11.1081 28.8963C12.7955 30.2394 14.7981 31.1292 16.9258 31.4814ZM11.0833 33.25C10.7702 33.25 10.4641 33.3429 10.2037 33.5168C9.9433 33.6908 9.74036 33.9381 9.62053 34.2274C9.50069 34.5167 9.46933 34.8351 9.53042 35.1422C9.59152 35.4494 9.74232 35.7315 9.96375 35.9529C10.1852 36.1744 10.4673 36.3251 10.7744 36.3862C11.0816 36.4473 11.3999 36.416 11.6892 36.2961C11.9786 36.1763 12.2258 35.9734 12.3998 35.713C12.5738 35.4526 12.6667 35.1465 12.6667 34.8333C12.6667 34.4134 12.4999 34.0107 12.2029 33.7137C11.906 33.4168 11.5033 33.25 11.0833 33.25ZM19 34.8333C18.6868 34.8333 18.3807 34.9262 18.1203 35.1002C17.86 35.2741 17.657 35.5214 17.5372 35.8107C17.4174 36.1001 17.386 36.4184 17.4471 36.7256C17.5082 37.0327 17.659 37.3148 17.8804 37.5363C18.1018 37.7577 18.384 37.9085 18.6911 37.9696C18.9982 38.0307 19.3166 37.9993 19.6059 37.8795C19.8952 37.7596 20.1425 37.5567 20.3165 37.2963C20.4905 37.0359 20.5833 36.7298 20.5833 36.4167C20.5833 35.9967 20.4165 35.594 20.1196 35.2971C19.8227 35.0001 19.4199 34.8333 19 34.8333ZM4.75 26.9167C4.43685 26.9167 4.13073 27.0095 3.87035 27.1835C3.60997 27.3575 3.40703 27.6048 3.28719 27.8941C3.16735 28.1834 3.136 28.5018 3.19709 28.8089C3.25818 29.116 3.40898 29.3982 3.63041 29.6196C3.85185 29.841 4.13397 29.9918 4.44111 30.0529C4.74824 30.114 5.0666 30.0826 5.35592 29.9628C5.64523 29.843 5.89252 29.64 6.06649 29.3797C6.24047 29.1193 6.33333 28.8132 6.33333 28.5C6.33333 28.0801 6.16652 27.6773 5.86959 27.3804C5.57265 27.0835 5.16993 26.9167 4.75 26.9167ZM1.58333 17.4167C1.27018 17.4167 0.964059 17.5095 0.703681 17.6835C0.443303 17.8575 0.240364 18.1048 0.120525 18.3941C0.000686028 18.6834 -0.0306692 19.0018 0.030424 19.3089C0.0915173 19.616 0.242315 19.8982 0.463748 20.1196C0.685181 20.341 0.967305 20.4918 1.27444 20.5529C1.58158 20.614 1.89993 20.5826 2.18925 20.4628C2.47857 20.343 2.72585 20.14 2.89983 19.8797C3.07381 19.6193 3.16667 19.3132 3.16667 19C3.16667 18.5801 2.99985 18.1773 2.70292 17.8804C2.40599 17.5835 2.00326 17.4167 1.58333 17.4167ZM38 19.7917V25.9081C37.9188 28.6748 36.9521 31.3426 35.2421 33.5191C33.5321 35.6957 31.1689 37.2663 28.5 38C25.8353 37.2806 23.4728 35.7228 21.762 33.5568C20.0511 31.3909 19.0827 28.7319 19 25.973V19.7917L28.5 15.8333L38 19.7917Z" fill="white"/>
</svg>
