<svg width="108" height="90" viewBox="0 0 108 90" fill="none" xmlns="http://www.w3.org/2000/svg">
<path d="M62 32.5C62 49.6208 48.1208 69.5 31 69.5C13.8792 69.5 0 49.6208 0 32.5C0 15.3792 13.8792 0 31 0C48.1208 0 62 15.3792 62 32.5Z" fill="#DF3434"/>
<path d="M107.5 33C104.585 54.3186 87.8647 72.6301 75 66.5C57.8792 66.5 45 50.1208 45 33C45 15.8792 58.8792 0.5 76 0.5C93.1208 0.5 109.756 16.5 107.5 33Z" fill="#DF3434"/>
<path d="M98.0245 51.658C106.046 55.6814 62.3482 91.5146 52.5 89C24.9249 81.959 -9.26765 43.1083 11.2883 43.1083C11.2883 25.8872 36.7368 24.5 53.9043 24.5C71.0719 24.5 84.8356 45.043 98.0245 51.658Z" fill="#DF3434"/>
</svg>
