<svg width="37" height="41" viewBox="0 0 37 41" fill="none" xmlns="http://www.w3.org/2000/svg">
<path d="M30.8333 29.0048C29.2719 29.0048 27.8635 29.6125 26.7954 30.5907L12.1483 22.0365C12.2618 21.5721 12.3333 21.0879 12.3333 20.5939C12.3333 20.0998 12.2618 19.6181 12.1483 19.1538L26.64 10.6835C27.7746 11.7541 29.2745 12.3504 30.8333 12.3509C34.2349 12.3509 37 9.58182 37 6.17544C37 2.76907 34.2349 0 30.8333 0C27.4318 0 24.6667 2.76907 24.6667 6.17544C24.6667 6.66948 24.7382 7.15363 24.8517 7.61556L10.36 16.0858C9.22474 15.0163 7.72529 14.4201 6.16667 14.4184C2.76513 14.4184 0 17.1875 0 20.5939C0 24.0002 2.76513 26.7693 6.16667 26.7693C7.72553 26.7689 9.22542 26.1725 10.36 25.1019L25.0071 33.6562C24.8992 34.0977 24.8437 34.5504 24.8418 35.0049C24.8423 36.1909 25.1939 37.3501 25.8522 38.336C26.5104 39.322 27.4458 40.0903 28.5401 40.5439C29.6343 40.9976 30.8383 41.1161 31.9999 40.8846C33.1614 40.6531 34.2283 40.082 35.0658 39.2433C35.9032 38.4047 36.4736 37.3363 36.7047 36.1731C36.9359 35.0099 36.8175 33.8042 36.3645 32.7084C35.9115 31.6126 35.1443 30.6758 34.1598 30.0166C33.1752 29.3574 32.0177 29.0053 30.8333 29.0048Z" fill="white"/>
</svg>
