<svg width="71" height="71" viewBox="0 0 71 71" fill="none" xmlns="http://www.w3.org/2000/svg">
<path d="M36.604 0C8.28825 0 -3.82803 32.7894 1.05399 44.0747C4.69331 52.472 12.6821 44.4301 15.8776 48.5177C24.2214 59.4475 6.51297 65.4455 16.277 69.311C27.7719 74.0206 71 71.0882 71 31.4121C71 19.4604 65.0528 0 36.604 0ZM19.8276 39.9871C18.5169 39.9608 17.2431 39.5478 16.1659 38.7997C15.0888 38.0516 14.2563 37.0018 13.7728 35.782C13.2893 34.5621 13.1763 33.2265 13.448 31.9426C13.7197 30.6587 14.364 29.4837 15.3001 28.565C16.2363 27.6462 17.4225 27.0246 18.7101 26.778C19.9978 26.5315 21.3294 26.671 22.5382 27.1791C23.7469 27.6872 24.7788 28.5413 25.5046 29.6342C26.2304 30.7271 26.6177 32.0102 26.618 33.3226C26.618 35.0901 25.9166 36.7853 24.6681 38.0351C23.4196 39.2849 21.7263 39.9871 19.9607 39.9871H19.8187H19.8276ZM26.618 15.5505C26.618 14.2324 27.0085 12.9439 27.74 11.8479C28.4715 10.752 29.5112 9.89775 30.7277 9.39333C31.9441 8.88891 33.2827 8.75693 34.5741 9.01408C35.8655 9.27123 37.0517 9.90596 37.9827 10.838C38.9138 11.7701 39.5478 12.9576 39.8047 14.2504C40.0616 15.5431 39.9297 16.8832 39.4259 18.1009C38.922 19.3187 38.0687 20.3596 36.9739 21.0919C35.8791 21.8242 34.592 22.2151 33.2753 22.2151H33.1333C31.3924 22.1779 29.7353 21.4593 28.5174 20.2135C27.2995 18.9677 26.6176 17.2937 26.618 15.5505ZM37.5804 62.2021C36.2697 62.1759 34.9959 61.7628 33.9187 61.0148C32.8416 60.2667 32.0091 59.2169 31.5256 57.997C31.042 56.7772 30.9291 55.4415 31.2008 54.1577C31.4725 52.8738 32.1168 51.6988 33.0529 50.78C33.989 49.8612 35.1753 49.2396 36.4629 48.9931C37.7505 48.7466 39.0822 48.8861 40.2909 49.3942C41.4997 49.9023 42.5316 50.7563 43.2574 51.8492C43.9832 52.9422 44.3705 54.2252 44.3708 55.5376C44.3708 57.3052 43.6694 59.0003 42.4209 60.2502C41.1724 61.5 39.4791 62.2021 37.7135 62.2021H37.5715H37.5804ZM55.3332 48.8731C54.0225 48.8469 52.7487 48.4338 51.6715 47.6857C50.5944 46.9376 49.7619 45.8878 49.2784 44.668C48.7948 43.4481 48.6819 42.1125 48.9536 40.8286C49.2253 39.5447 49.8696 38.3697 50.8057 37.451C51.7418 36.5322 52.9281 35.9106 54.2157 35.6641C55.5033 35.4175 56.835 35.5571 58.0437 36.0652C59.2525 36.5733 60.2844 37.4273 61.0102 38.5202C61.736 39.6131 62.1233 40.8962 62.1236 42.2086C62.1236 43.9761 61.4222 45.6713 60.1737 46.9211C58.9252 48.171 57.2319 48.8731 55.4663 48.8731H55.3243H55.3332ZM55.3332 26.6581C54.0225 26.6318 52.7487 26.2188 51.6715 25.4707C50.5944 24.7226 49.7619 23.6728 49.2784 22.4529C48.7948 21.2331 48.6819 19.8975 48.9536 18.6136C49.2253 17.3297 49.8696 16.1547 50.8057 15.2359C51.7418 14.3172 52.9281 13.6955 54.2157 13.449C55.5033 13.2025 56.835 13.342 58.0437 13.8501C59.2525 14.3582 60.2844 15.2123 61.0102 16.3052C61.736 17.3981 62.1233 18.6812 62.1236 19.9935C62.1236 21.7611 61.4222 23.4562 60.1737 24.7061C58.9252 25.9559 57.2319 26.6581 55.4663 26.6581H55.3243H55.3332Z" fill="white"/>
</svg>
